:FULLY-SPECIFIED
:FORCE-ALL-JOINTS-BE-3DOF
:DEGREES
476
root 3.55863 16.3025 -7.21564 4.54482 58.6075 -7.09872
lfemur -40.0531 -1.08399 -21.636
ltibia 49.8791 0 0
lfoot -20.0916 0.992419 0
ltoes 16.7146 0 0
rfemur -18.8466 2.89596 9.84522
rtibia 68.229 0 0
rfoot 26.9135 14.6533 0
rtoes -27.5156 0 0
lowerback 2.07948 0.0390791 1.78981
upperback -0.360935 0.128374 1.40749
thorax -1.53489 0.0575171 0.43469
lowerneck -8.50433 -6.76581 0.550196
upperneck 3.2625 -9.15562 1.30884
head 2.53799 -4.50072 -0.11342
lclavicle -5.94466e-14 1.57275e-15 0
lhumerus -48.629 -26.8683 107.83
lradius 55.9785 0 0
lwrist 5.13464 0 0
lhand -10.2552 -6.67974 0
lfingers 7.12502 0 0
lthumb 15.7375 22.6981 0
rclavicle -5.94466e-14 1.57275e-15 0
rhumerus -55.8264 1.66025 -82.8497
rradius 62.6457 0 0
rwrist 13.9576 0 0
rhand -29.3612 -27.3627 0
rfingers 7.12502 0 0
rthumb -2.7004 -777.325 0
477
root 3.61278 16.3167 -7.1822 4.72788 59.4614 -6.70436
lfemur -39.4703 -1.85422 -21.8045
ltibia 49.5235 0 0
lfoot -20.1406 0.878127 0
ltoes 16.9131 0 0
rfemur -20.2997 2.76856 9.81985
rtibia 69.6766 0 0
rfoot 26.4838 14.4846 0
rtoes -26.4688 0 0
lowerback 2.14686 0.0103468 1.63074
upperback -0.349163 0.0864532 1.33601
thorax -1.5607 0.037319 0.451986
lowerneck -8.50913 -6.86505 0.461495
upperneck 3.34208 -9.2835 1.35604
head 2.57291 -4.56287 -0.092401
lclavicle -5.22426e-14 1.71035e-15 0
lhumerus -48.6961 -27.0804 108.018
lradius 56.0688 0 0
lwrist 5.18703 0 0
lhand -9.45241 -6.26556 0
lfingers 7.12502 0 0
lthumb 16.5099 23.0454 0
rclavicle -5.22426e-14 1.71035e-15 0
rhumerus -55.5703 2.06386 -83.272
rradius 62.7291 0 0
rwrist 14.3555 0 0
rhand -29.0688 -27.1669 0
rfingers 7.12502 0 0
rthumb -2.41791 -777.135 0
478
root 3.68028 16.3337 -7.13958 4.99344 60.531 -6.19219
lfemur -38.7556 -2.76877 -22.0229
ltibia 49.0775 0 0
lfoot -20.2124 0.676744 0
ltoes 17.159 0 0
rfemur -22.2227 2.51793 9.82238
rtibia 71.4808 0 0
rfoot 25.8407 13.9205 0
rtoes -25.1566 0 0
lowerback 2.2245 -0.0300113 1.43912
upperback -0.337228 0.0275386 1.24058
thorax -1.59205 0.00875362 0.463685
lowerneck -8.51186 -6.98304 0.355226
upperneck 3.45088 -9.43612 1.41696
head 2.61941 -4.63673 -0.0661702
lclavicle -4.16774e-14 1.65698e-15 0
lhumerus -48.774 -27.3555 108.262
lradius 56.1548 0 0
lwrist 5.22166 0 0
lhand -8.43515 -5.7289 0
lfingers 7.12502 0 0
lthumb 17.4885 23.4918 0
rclavicle -4.16774e-14 1.65698e-15 0
rhumerus -55.1951 2.57684 -83.8561
rradius 62.8269 0 0
rwrist 14.8922 0 0
rhand -28.6812 -26.9145 0
rfingers 7.12502 0 0
rthumb -2.04329 -776.892 0
479
root 3.75734 16.3524 -7.08969 5.33252 61.7589 -5.59087
lfemur -37.9549 -3.7596 -22.2787
ltibia 48.5696 0 0
lfoot -20.3077 0.379701 0
ltoes 17.4348 0 0
rfemur -24.5384 2.13601 9.86336
rtibia 73.5164 0 0
rfoot 24.986 12.8903 0
rtoes -23.6638 0 0
lowerback 2.30692 -0.0808404 1.22866
upperback -0.326459 -0.0467316 1.12588
thorax -1.62717 -0.0274191 0.466885
lowerneck -8.5116 -7.11126 0.238938
upperneck 3.58707 -9.60262 1.48808
head 2.67631 -4.71695 -0.0365486
lclavicle -2.79717e-14 1.35085e-15 0
lhumerus -48.8554 -27.6809 108.552
lradius 56.222 0 0
lwrist 5.22565 0 0
lhand -7.25938 -5.09709 0
lfingers 7.12502 0 0
lthumb 18.6191 24.013 0
rclavicle -2.79717e-14 1.35085e-15 0
rhumerus -54.7022 3.18717 -84.588
rradius 62.9457 0 0
rwrist 15.5511 0 0
rhand -28.202 -26.6142 0
rfingers 7.12502 0 0
rthumb -1.58012 -776.603 0
